<svg width="12" height="12" viewBox="0 0 12 12" fill="none" xmlns="http://www.w3.org/2000/svg">
<g clip-path="url(#clip0_1_240)">
<path d="M3.75488 9.90088C4.41563 10.282 5.18226 10.5 5.99982 10.5C8.4851 10.5 10.5 8.48528 10.5 6C10.5 3.51472 8.48528 1.5 6 1.5C3.51472 1.5 1.5 3.51472 1.5 6C1.5 6.81756 1.71802 7.58419 2.0991 8.24494L2.10057 8.2475C2.13724 8.31107 2.15573 8.34313 2.1641 8.37343C2.172 8.402 2.17421 8.4277 2.17219 8.45728C2.17001 8.48906 2.1593 8.52201 2.13734 8.58789L1.75293 9.74113L1.75245 9.74264C1.67134 9.98596 1.63079 10.1076 1.65969 10.1887C1.6849 10.2594 1.74084 10.3152 1.81152 10.3404C1.89241 10.3692 2.01352 10.3288 2.25577 10.2481L2.25879 10.247L3.41202 9.86255C3.47769 9.84066 3.51107 9.82956 3.5428 9.82739C3.57238 9.82537 3.59789 9.82804 3.62646 9.83594C3.65684 9.84433 3.68892 9.86283 3.75282 9.89969L3.75488 9.90088Z" stroke="white" stroke-width="1.2" stroke-linecap="round" stroke-linejoin="round"/>
</g>
<defs>
<clipPath id="clip0_1_240">
<rect width="12" height="12" fill="white"/>
</clipPath>
</defs>
</svg>
