<svg width="8" height="7" viewBox="0 0 8 7" fill="none" xmlns="http://www.w3.org/2000/svg">
<path d="M3.27373 2.13228C3.50836 1.44297 4.49072 1.44298 4.72536 2.13228C4.82782 2.43329 5.11141 2.6383 5.42939 2.6383H5.48882C6.19847 2.6383 6.48466 3.55313 5.90151 3.95755C5.63582 4.14181 5.525 4.48144 5.62919 4.78753C5.85773 5.45896 5.09912 6.03918 4.5163 5.63499L4.43672 5.57979C4.17379 5.39744 3.82529 5.39744 3.56235 5.57979L3.48277 5.63499C2.89996 6.03918 2.14135 5.45895 2.3699 4.78753C2.47409 4.48144 2.36327 4.14181 2.09757 3.95755C1.51443 3.55313 1.80061 2.6383 2.51027 2.6383H2.5697C2.88767 2.6383 3.17126 2.43329 3.27373 2.13228Z" fill="#FFC919"/>
</svg>
